<svg xmlns="http://www.w3.org/2000/svg" viewBox="0 0 576 512">
  <path fill="currentColor" d="M549.655 124.083c-6.281-23.65-24.812-42.179-48.461-48.461C458.778 64 288 64 288 64S117.222 64 74.806 75.622c-23.649 6.282-42.18 24.811-48.461 48.461C16 166.497 16 256 16 256s0 89.503 10.345 131.917c6.281 23.65 24.812 42.179 48.461 48.461C117.222 448 288 448 288 448s170.778 0 213.194-11.622c23.649-6.282 42.18-24.811 48.461-48.461C560 345.503 560 256 560 256s0-89.503-10.345-131.917zM232 336V176l142 80-142 80z"></path>
</svg>
